<mxfile host="app.diagrams.net" modified="2024-04-25T05:04:55.184Z" agent="Mozilla/5.0 (Windows NT 10.0; Win64; x64) AppleWebKit/537.36 (KHTML, like Gecko) Chrome/124.0.0.0 Safari/537.36" version="24.2.7" etag="E9FCyMVXpCoa--PGWELH" type="github">
  <diagram name="第 1 页" id="kWwtmEkgG9PY7HOd2MP9">
    <mxGraphModel>
      <root>
        <mxCell id="0" />
        <mxCell id="1" parent="0" />
      </root>
    </mxGraphModel>
  </diagram>
</mxfile>
